<?xml version="1.0" encoding="UTF-8"?>
<svg id="Layer_2" data-name="Layer 2" xmlns="http://www.w3.org/2000/svg" viewBox="0 0 752.44 118.29">
  <defs>
    <style>
      .cls-1 {
        stroke-width: 0px;
      }
    </style>
  </defs>
  <g id="Layer_1-2" data-name="Layer 1">
    <g>
      <rect class="cls-1" x=".5" y=".5" width="751.44" height="117.29" rx="21.58" ry="21.58"/>
      <path class="cls-1" d="M730.36,1c11.62,0,21.08,9.46,21.08,21.08v74.13c0,11.62-9.46,21.08-21.08,21.08H22.08c-11.62,0-21.08-9.46-21.08-21.08V22.08C1,10.46,10.46,1,22.08,1h708.28M730.36,0H22.08C9.89,0,0,9.89,0,22.08v74.13c0,12.19,9.89,22.08,22.08,22.08h708.28c12.19,0,22.08-9.89,22.08-22.08V22.08c0-12.19-9.89-22.08-22.08-22.08h0Z"/>
    </g>
  </g>
</svg>